<?xml version="1.0" encoding="UTF-8" standalone="no"?>
<!-- Created with Inkscape (http://www.inkscape.org/) -->

<svg
   xmlns:dc="http://purl.org/dc/elements/1.1/"
   xmlns:cc="http://creativecommons.org/ns#"
   xmlns:rdf="http://www.w3.org/1999/02/22-rdf-syntax-ns#"
   xmlns:svg="http://www.w3.org/2000/svg"
   xmlns="http://www.w3.org/2000/svg"
   xmlns:sodipodi="http://sodipodi.sourceforge.net/DTD/sodipodi-0.dtd"
   xmlns:inkscape="http://www.inkscape.org/namespaces/inkscape"
   id="svg7384"
   sodipodi:docname="network.svg"
   version="1.1"
   inkscape:version="0.48.3.1 r9886"
   height="256"
   width="256">
  <metadata
     id="metadata90">
    <rdf:RDF>
      <cc:Work
         rdf:about="">
        <dc:format>image/svg+xml</dc:format>
        <dc:type
           rdf:resource="http://purl.org/dc/dcmitype/StillImage" />
        <dc:title>Gnome Symbolic Icon Theme</dc:title>
      </cc:Work>
    </rdf:RDF>
  </metadata>
  <sodipodi:namedview
     inkscape:cy="204.33335"
     pagecolor="#ffffff"
     borderopacity="1"
     showborder="true"
     inkscape:bbox-paths="false"
     guidetolerance="10"
     inkscape:object-paths="true"
     inkscape:window-width="1296"
     showguides="true"
     inkscape:object-nodes="true"
     inkscape:snap-bbox="true"
     inkscape:pageshadow="2"
     inkscape:guide-bbox="true"
     inkscape:snap-nodes="false"
     bordercolor="#666666"
     objecttolerance="10"
     id="namedview88"
     showgrid="true"
     inkscape:window-maximized="0"
     inkscape:window-x="138"
     inkscape:snap-global="false"
     inkscape:window-y="26"
     gridtolerance="10"
     inkscape:window-height="846"
     inkscape:snap-to-guides="true"
     inkscape:current-layer="layer9"
     inkscape:snap-bbox-midpoints="false"
     inkscape:zoom="1"
     inkscape:cx="-235.60734"
     inkscape:snap-grids="true"
     inkscape:pageopacity="0">
    <inkscape:grid
       spacingx="1px"
       spacingy="1px"
       id="grid4866"
       empspacing="2"
       enabled="true"
       type="xygrid"
       snapvisiblegridlinesonly="true"
       visible="true" />
  </sodipodi:namedview>
  <title
     id="title9167">Gnome Symbolic Icon Theme</title>
  <defs
     id="defs7386" />
  <g
     inkscape:label="status"
     transform="translate(-181.0002,63)"
     inkscape:groupmode="layer"
     id="layer9"
     style="display:inline">
    <path
       style="fill:#808080;fill-opacity:1;stroke:none"
       d="m 356.91405,-47.194739 c -7.28697,-3.768867 -16.46844,-1.089353 -19.96517,6.332056 l -11.1276,23.620759 c -1.32701,2.816427 -7.04408,13.6039491 -6.6901,16.46556366 L 279.09707,-21.482237 c -7.28699,-3.768869 -18.26299,-1.665285 -19.97825,6.35733 l -11.27646,29.85465 136.33353,71.057096 15.64364,-28.140521 c 3.98761,-7.169617 0.92964,-16.209375 -6.35733,-19.978243 L 355.72802,18.15174 c 2.53975,-1.364957 7.26346,-11.5786297 8.8236,-14.2729139 l 13.5687,-23.4473961 c 4.11104,-7.099568 0.94186,-16.17103 -6.34513,-19.939897 l -14.86114,-7.686272 z m -110.43889,68.84167 -42.43136,82.039609 27.70037,14.32679 42.43136,-82.039605 -27.70037,-14.326794 z m 35.01507,19.199183 -42.43137,82.039596 27.70037,14.3268 42.43137,-82.039602 -27.70037,-14.326794 z m 35.4595,18.339865 -42.43135,82.039601 27.70036,14.3268 42.43137,-82.039607 -27.70038,-14.326794 z m 34.8582,19.502472 -42.41828,82.014329 27.70037,14.32679 42.41829,-82.014322 -27.70038,-14.326797 z"
       id="rect2996"
       inkscape:connector-curvature="0" />
  </g>
  <g
     inkscape:label="devices"
     transform="translate(-181.0002,63)"
     inkscape:groupmode="layer"
     id="layer10" />
  <g
     inkscape:label="apps"
     transform="translate(-181.0002,63)"
     inkscape:groupmode="layer"
     id="layer11" />
  <g
     inkscape:label="actions"
     transform="translate(-181.0002,63)"
     inkscape:groupmode="layer"
     id="layer12" />
  <g
     inkscape:label="places"
     transform="translate(-181.0002,63)"
     inkscape:groupmode="layer"
     id="layer13" />
  <g
     inkscape:label="mimetypes"
     transform="translate(-181.0002,63)"
     inkscape:groupmode="layer"
     id="layer14" />
  <g
     inkscape:label="emblems"
     transform="translate(-181.0002,63)"
     inkscape:groupmode="layer"
     id="layer15"
     style="display:inline" />
  <g
     inkscape:label="categories"
     transform="translate(-181.0002,63)"
     inkscape:groupmode="layer"
     id="g4953"
     style="display:inline" />
</svg>
